<svg xmlns="http://www.w3.org/2000/svg" width="200" height="250"><defs><style>.cls-1{fill:#fff}.cls-1,.cls-13,.cls-2,.cls-3,.cls-4,.cls-8{fill-rule:evenodd}.cls-2{fill:#888}.cls-3{fill:#333}.cls-4{fill:#e62222}.cls-8{fill:#1d1a1a}.cls-13{fill:none;stroke-linecap:round;stroke-linejoin:round;stroke:#fbfbfb;stroke-width:2px}</style></defs><path id="Compare" class="cls-1" d="M31 53a1 1 0 011 1v11h-2V54a1 1 0 011-1zm4 5a1 1 0 011 1v6h-2v-6a1 1 0 011-1zm4-2a1 1 0 011 1v8h-2v-8a1 1 0 011-1zm-12 4a1 1 0 011 1v4h-2v-4a1 1 0 011-1z"/><path id="Compare-2" data-name="Compare" class="cls-2" d="M31 25a1 1 0 011 1v11h-2V26a1 1 0 011-1zm4 5a1 1 0 011 1v6h-2v-6a1 1 0 011-1zm4-2a1 1 0 011 1v8h-2v-8a1 1 0 011-1zm-12 4a1 1 0 011 1v4h-2v-4a1 1 0 011-1z"/><path id="Compare-3" data-name="Compare" class="cls-3" d="M31 81a1 1 0 011 1v11h-2V82a1 1 0 011-1zm4 5a1 1 0 011 1v6h-2v-6a1 1 0 011-1zm4-2a1 1 0 011 1v8h-2v-8a1 1 0 011-1zm-12 4a1 1 0 011 1v4h-2v-4a1 1 0 011-1z"/><path id="Wishlist" class="cls-2" d="M15.968 31.638l.027.014-5.882 5.795H9.88l-5.709-5.625-.153-.151-.049-.048h.008a4.016 4.016 0 01-1.015-2.676A3.854 3.854 0 016.723 25a3.727 3.727 0 013.292 2.07 3.7 3.7 0 013.28-2.07 3.828 3.828 0 013.736 3.913 3.99 3.99 0 01-1.063 2.725zm-2.755-4.656c-1.894 0-3.244 3.261-3.244 3.261S8.545 26.983 6.852 27c-1.111.01-1.879.409-1.881 1.976 0 1.032 5 5.876 5 5.876s4.952-4.722 4.994-5.791c.041-1.103-.301-2.078-1.752-2.078z"/><path id="Wishlist-2" data-name="Wishlist" class="cls-1" d="M15.968 59.638l.027.014-5.882 5.795H9.88l-5.709-5.625-.153-.151-.049-.048h.008a4.016 4.016 0 01-1.015-2.676A3.854 3.854 0 016.723 53a3.727 3.727 0 013.292 2.07 3.7 3.7 0 013.28-2.07 3.828 3.828 0 013.736 3.913 3.991 3.991 0 01-1.063 2.725zm-2.755-4.656c-1.894 0-3.244 3.261-3.244 3.261S8.545 54.983 6.852 55c-1.111.01-1.879.409-1.881 1.976 0 1.032 5 5.876 5 5.876s4.952-4.722 4.994-5.791c.041-1.103-.301-2.078-1.752-2.078z"/><path id="Wishlist-3" data-name="Wishlist" class="cls-3" d="M15.968 87.638l.027.014-5.882 5.795H9.88l-5.709-5.625-.153-.151-.049-.048h.008a4.016 4.016 0 01-1.015-2.676A3.854 3.854 0 016.723 81a3.727 3.727 0 013.292 2.071A3.7 3.7 0 0113.295 81a3.828 3.828 0 013.736 3.913 3.99 3.99 0 01-1.063 2.725zm-2.755-4.656c-1.894 0-3.244 3.261-3.244 3.261S8.545 82.983 6.852 83c-1.111.01-1.879.409-1.881 1.976 0 1.032 5 5.876 5 5.876s4.952-4.723 4.994-5.791c.041-1.103-.301-2.078-1.752-2.078z"/><path id="Kupon" class="cls-4" d="M110.7 94.7a1.039 1.039 0 01-1.469 0l-2.118-2.117A3.461 3.461 0 01105.5 93a3.5 3.5 0 113.5-3.5 3.464 3.464 0 01-.413 1.617l2.117 2.117a1.039 1.039 0 01-.004 1.466zm-5.2-6.7a1.5 1.5 0 101.5 1.5 1.5 1.5 0 00-1.5-1.5z"/><path id="Shape" class="cls-2" d="M134.7 95.7a1.039 1.039 0 01-1.469 0l-2.516-2.516a5.019 5.019 0 111.469-1.469l2.516 2.516a1.039 1.039 0 010 1.469zM128 86a3 3 0 103 3 3 3 0 00-3-3z"/><path id="Metro" d="M13 245H9v-1h.467l-.651-1.985-1.778 3.016-1.778-3.016L4.61 244H5v1H1v-1h.863l2.83-6.974 2.345 4.291 2.345-4.291L12.214 244H13v1z" fill="#ed1f24" fill-rule="evenodd"/><path d="M126 214h-4v4h-2v-4h-4v-2h4v-4h2v4h4v2z" fill="#8c8c8c" fill-rule="evenodd"/><path id="Cart" d="M50.927 209.639a.962.962 0 01.067.333c0 .01.006.018.006.028s-.007.022-.007.034a.952.952 0 010 .181L49.9 215.1c0 .02-.018.035-.024.054a.988.988 0 01-.97.851H39a1.16 1.16 0 01-1.046-.948L37.048 208H35a1 1 0 010-2h2.902c.025 0 .046.012.07.014a.991.991 0 01.318.064.988.988 0 01.623.808l.279 2.114H50c.033 0 .061.016.093.019a.8.8 0 01.139 0 .793.793 0 01.1.046.908.908 0 01.113.05.952.952 0 01.235.158c.017.016.032.033.048.05a.984.984 0 01.179.266c.009.018.014.034.02.05zM39.835 214H48.1l.67-3h-9.321zm.669 3.012A2.488 2.488 0 1138 219.5a2.5 2.5 0 012.5-2.488zm0 3.063a.575.575 0 10-.579-.575.577.577 0 00.575.575zm7-3.079a2.5 2.5 0 11-2.5 2.5A2.5 2.5 0 0147.5 217zm0 3.079a.575.575 0 10-.579-.575.577.577 0 00.575.575z" fill="#8f8d8d" fill-rule="evenodd"/><path id="Cart-2" data-name="Cart" class="cls-8" d="M166.927 183.639a.955.955 0 01.067.333.28.28 0 01.006.028c0 .012-.007.022-.007.034a.913.913 0 010 .181L165.9 189.1a.522.522 0 01-.024.054.987.987 0 01-.97.851H155a1.161 1.161 0 01-1.046-.948l-.906-7.057H151a1 1 0 010-2h2.902c.025 0 .046.012.071.014a.994.994 0 01.318.064.989.989 0 01.624.808l.277 2.114H166c.033 0 .061.016.093.019a.321.321 0 01.242.049.933.933 0 01.112.05.95.95 0 01.235.158c.017.016.032.033.048.05a1 1 0 01.179.266c.007.015.012.031.018.047zM155.835 188h8.26l.67-3h-9.316zm.669 3.012A2.488 2.488 0 11154 193.5a2.5 2.5 0 012.5-2.488zm0 3.063a.575.575 0 10-.579-.575.577.577 0 00.575.575zm7-3.079a2.5 2.5 0 11-2.5 2.5A2.5 2.5 0 01163.5 191zm0 3.079a.575.575 0 10-.579-.575.577.577 0 00.575.575z"/><path id="Cart-3" data-name="Cart" class="cls-1" d="M184.927 161.639a.955.955 0 01.067.333.28.28 0 01.006.028c0 .012-.007.022-.007.034a.913.913 0 010 .181L183.9 167.1a.522.522 0 01-.024.054.987.987 0 01-.97.851H173a1.161 1.161 0 01-1.046-.948l-.906-7.057H169a1 1 0 010-2h2.902c.025 0 .046.012.071.014a.994.994 0 01.318.064.989.989 0 01.624.808l.277 2.114H184c.033 0 .061.016.093.019a.321.321 0 01.242.049.933.933 0 01.112.05.95.95 0 01.235.158c.017.016.032.033.048.05a1 1 0 01.179.266c.007.015.012.031.018.047zM173.835 166h8.26l.67-3h-9.316zm.669 3.012A2.488 2.488 0 11172 171.5a2.5 2.5 0 012.5-2.488zm0 3.063a.575.575 0 10-.579-.575.577.577 0 00.575.575zm7-3.079a2.5 2.5 0 11-2.5 2.5A2.5 2.5 0 01181.5 169zm0 3.079a.575.575 0 10-.579-.575.577.577 0 00.575.575z"/><path id="Cart-4" data-name="Cart" class="cls-1" d="M168 144h2v8h-2v-8zm4-7h2v15h-2v-15zm4 3h2v12h-2v-12zm4 6h2v6h-2v-6z"/><path id="Cart-5" data-name="Cart" class="cls-8" d="M96 187h2v8h-2v-8zm4-7h2v15h-2v-15zm4 3h2v12h-2v-12zm4 6h2v6h-2v-6z"/><path id="Check" class="cls-1" d="M47.663 5.9l-6.321 6.761a1.074 1.074 0 01-1.543 0L36.3 8.906a1.134 1.134 0 010-1.579 1.074 1.074 0 011.543 0l2.732 2.925 5.549-5.935a1.073 1.073 0 011.543 0 1.134 1.134 0 01-.004 1.583z"/><path id="Check-2" data-name="Check" class="cls-1" d="M58.72 8.475l-5.142 5.259a.926.926 0 01-.659.251.946.946 0 01-.175-.033.922.922 0 01-.155-.031.943.943 0 01-.359-.221l-2.968-3a1.013 1.013 0 010-1.4.944.944 0 011.362 0l2.419 2.445 4.39-4.489a.939.939 0 011.286 0 .84.84 0 01.001 1.219z"/><path id="Check-3" data-name="Check" class="cls-4" d="M14.691 5.667L8.9 11.724a1 1 0 01-1.414 0L4.272 8.7a1 1 0 111.414-1.414l2.468 2.323 5.124-5.355a1 1 0 111.413 1.413z"/><path id="Check-4" data-name="Check" d="M29.691 5.667L23.9 11.724a1 1 0 01-1.414 0L19.272 8.7a1 1 0 011.414-1.414l2.467 2.323 5.124-5.355a1 1 0 011.414 1.413z" fill="#37ac09" fill-rule="evenodd"/><path class="cls-8" d="M80.668 192.668a1.086 1.086 0 01-1.534 0l-2.878-2.878a6.532 6.532 0 111.534-1.534l2.878 2.878a1.085 1.085 0 010 1.534zM72.5 180a4.5 4.5 0 104.5 4.5 4.5 4.5 0 00-4.5-4.5z"/><path class="cls-1" d="M158.668 151.668a1.086 1.086 0 01-1.534 0l-2.878-2.878a6.531 6.531 0 111.534-1.534l2.878 2.878a1.086 1.086 0 010 1.534zM150.5 139a4.5 4.5 0 104.5 4.5 4.5 4.5 0 00-4.5-4.5z"/><path d="M196 224h-5v5a1 1 0 01-2 0v-5h-5a1 1 0 010-2h5v-5a1 1 0 012 0v5h5a1 1 0 010 2z" fill="#fbfbfb" fill-rule="evenodd"/><path class="cls-8" d="M194.659 187.851l-4.632 4.632 4.632 4.632a1.092 1.092 0 01-1.544 1.544l-4.632-4.632-4.632 4.632a1.092 1.092 0 01-1.545-1.544l4.633-4.632-4.633-4.632a1.092 1.092 0 011.545-1.545l4.632 4.633 4.632-4.633a1.092 1.092 0 011.544 1.545z"/><path d="M158 209h10v2h-10zm0 4h10v2h-10z" fill="#8c8c8c"/><path id="X" class="cls-1" d="M142.414 213l3.3 3.3a1 1 0 01-1.414 1.414l-3.3-3.3-3.3 3.3a1 1 0 01-1.415-1.414l3.3-3.3-3.3-3.3a1 1 0 011.415-1.415l3.3 3.3 3.3-3.3a1 1 0 011.414 1.415z"/><path d="M27.522 237.513l-3.653 3.544 3.518 3.392" stroke="#1d1a1a" stroke-width="1.1" opacity=".5" fill="none" stroke-linecap="round" stroke-linejoin="round" fill-rule="evenodd"/><path class="cls-1" d="M56 166H5a3 3 0 01-3-3v-31a3 3 0 013-3h13.849a12.456 12.456 0 00.989 2H5a1 1 0 00-1 1v31a1 1 0 001 1h51a1 1 0 001-1v-31a1 1 0 00-1-1H41.162a12.456 12.456 0 00.989-2H56a3 3 0 013 3v31a3 3 0 01-3 3z"/><path class="cls-13" d="M3.985 163.716s12.178-9.9 20.006-16.393m33 16.489s-19.016-15.612-20.2-16.6"/><path class="cls-13" d="M4.016 131.707l26.429 20.52 26.546-20.618"/><path id="circle" class="cls-13" d="M30.5 112.028A12.472 12.472 0 1043 124.5a12.486 12.486 0 00-12.5-12.472z"/><path id="Check-5" data-name="Check" class="cls-1" d="M37.8 120.559l-9.028 9.091a.872.872 0 01-.052.078 1 1 0 01-1.414 0l-3.95-3.95a1 1 0 111.414-1.414l3.23 3.227 8.388-8.446a1 1 0 011.412 1.414z"/><path id="Refresh" class="cls-1" d="M77 88v-2h1.21a4.444 4.444 0 00-7.219-.285l-1.748-1.009A6.477 6.477 0 0174.5 82a6.4 6.4 0 015.5 3.135V83h2v5h-5zm-5 3h-1.208a4.46 4.46 0 006.864.7l1.778.984A6.4 6.4 0 0169 91.861V94h-2v-5h5v2z"/></svg>